<?xml version="1.0" encoding="utf-8"?>
<svg xmlns="http://www.w3.org/2000/svg" viewBox="0 0 500 500">
  <g xmlns="http://www.w3.org/2000/svg" transform="matrix(6.918247, 0, 0, 6.918247, -228.8228, -2755.41748)" style="">
    <g>
      <path style="fill:#404040;" d="M39.193,450.022c4.655-10.352,12.763-19.069,23.813-22.548c5.824-1.833,12.069-2.142,18.056-0.96     c5.809,1.146,10.532,4.237,15.928,6.371c2.107,0.833,3.144-2.041,1.995-3.428c-8.324-10.049-26.69-10.806-38.014-6.63     c-11.672,4.305-21.145,14.001-24.384,26.096C36.184,450.429,38.511,451.539,39.193,450.022L39.193,450.022z"/>
    </g>
    <g>
      <path style="fill:#404040;" d="M87.897,414.952c1.793,2.802,3.432,5.858,4.867,8.867c1.37,2.872,1.945,6.325,3.998,8.76     c1.432,1.698,4.007,0.215,4.101-1.699c0.161-3.287-2.213-6.81-3.958-9.482c-2.02-3.093-4.35-5.512-7.168-7.867     C88.78,412.732,87.13,413.754,87.897,414.952L87.897,414.952z"/>
    </g>
    <g>
      <path style="fill:#404040;" d="M81.22,439.143c6.155-1.031,11.985-3.627,17.747-5.945c4.076-1.639,1.729-7.43-2.363-5.605     c-5.815,2.595-11.712,5.453-16.334,9.917C79.511,438.243,80.32,439.294,81.22,439.143L81.22,439.143z"/>
    </g>
    <g>
      <path style="fill:#404040;" d="M51.299,439.163c7.396-5.759,14.339-10.558,24.244-9.309c0.719,0.091,0.893-1.155,0.172-1.274     c-9.473-1.558-19.455,2.107-25.018,10.119C50.427,439.088,50.987,439.406,51.299,439.163L51.299,439.163z"/>
    </g>
    <g>
      <path style="fill:#404040;" d="M79.534,430.384c0.053-0.021,0.106-0.042,0.159-0.063c0.429-0.17,0.644-0.693,0.279-1.058     c-0.365-0.365-0.888-0.149-1.058,0.279c-0.021,0.053-0.042,0.106-0.063,0.159C78.703,430.078,79.158,430.533,79.534,430.384     L79.534,430.384z"/>
    </g>
  </g>
</svg>